<svg width="20" height="21" viewBox="0 0 20 21" fill="none" xmlns="http://www.w3.org/2000/svg">
<g clip-path="url(#clip0_504_1120)">
<path d="M10.0022 5.76117C7.16453 5.76117 4.87563 8.05058 4.87563 10.8889C4.87563 13.7273 7.16453 16.0167 10.0022 16.0167C12.8399 16.0167 15.1288 13.7273 15.1288 10.8889C15.1288 8.05058 12.8399 5.76117 10.0022 5.76117ZM10.0022 14.2226C8.16843 14.2226 6.66927 12.7276 6.66927 10.8889C6.66927 9.05025 8.16397 7.55521 10.0022 7.55521C11.8405 7.55521 13.3352 9.05025 13.3352 10.8889C13.3352 12.7276 11.836 14.2226 10.0022 14.2226ZM16.5343 5.55142C16.5343 6.21637 15.9989 6.74745 15.3385 6.74745C14.6737 6.74745 14.1428 6.21191 14.1428 5.55142C14.1428 4.89092 14.6782 4.35539 15.3385 4.35539C15.9989 4.35539 16.5343 4.89092 16.5343 5.55142ZM19.9297 6.7653C19.8539 5.16315 19.488 3.74399 18.3146 2.57474C17.1456 1.40548 15.7267 1.03954 14.1249 0.959205C12.4741 0.865486 7.52593 0.865486 5.87507 0.959205C4.27775 1.03507 2.8589 1.40102 1.68544 2.57027C0.511991 3.73952 0.150586 5.15869 0.0702733 6.76083C-0.0234244 8.41207 -0.0234244 13.3613 0.0702733 15.0125C0.146124 16.6147 0.511991 18.0338 1.68544 19.2031C2.8589 20.3723 4.27328 20.7383 5.87507 20.8186C7.52593 20.9123 12.4741 20.9123 14.1249 20.8186C15.7267 20.7428 17.1456 20.3768 18.3146 19.2031C19.4835 18.0338 19.8494 16.6147 19.9297 15.0125C20.0234 13.3613 20.0234 8.41653 19.9297 6.7653ZM17.797 16.7843C17.449 17.659 16.7752 18.3329 15.8963 18.6854C14.58 19.2076 11.4568 19.0871 10.0022 19.0871C8.54769 19.0871 5.41997 19.2031 4.1082 18.6854C3.23369 18.3373 2.55996 17.6634 2.20747 16.7843C1.68544 15.4677 1.80591 12.3438 1.80591 10.8889C1.80591 9.43405 1.68991 6.30563 2.20747 4.99357C2.55549 4.11886 3.22922 3.44498 4.1082 3.09242C5.42443 2.57027 8.54769 2.69077 10.0022 2.69077C11.4568 2.69077 14.5845 2.57474 15.8963 3.09242C16.7708 3.44052 17.4445 4.1144 17.797 4.99357C18.319 6.31009 18.1985 9.43405 18.1985 10.8889C18.1985 12.3438 18.319 15.4722 17.797 16.7843Z" fill="#A6ACAB"/>
</g>
<defs>
<clipPath id="clip0_504_1120">
<rect width="20" height="20" fill="white" transform="translate(0 0.888916)"/>
</clipPath>
</defs>
</svg>
