<svg width="60" height="60" viewBox="0 0 70 70" fill="none" xmlns="http://www.w3.org/2000/svg">
<circle cx="35" cy="35" r="35" fill="#ECA30C"/>
<path d="M49.0089 19.9578C45.2679 16.1141 40.2857 14 34.9911 14C24.0625 14 15.1696 23.1152 15.1696 34.317C15.1696 37.8953 16.0804 41.3913 17.8125 44.4754L15 55L25.5089 52.1721C28.4018 53.792 31.6607 54.6431 34.9821 54.6431H34.9911C45.9107 54.6431 55 45.5279 55 34.3261C55 28.8991 52.75 23.8016 49.0089 19.9578ZM34.9911 51.2203C32.0268 51.2203 29.125 50.4058 26.5982 48.8683L26 48.5022L19.7679 50.177L21.4286 43.9446L21.0357 43.304C19.3839 40.6134 18.5179 37.5109 18.5179 34.317C18.5179 25.0096 25.9107 17.4319 35 17.4319C39.4018 17.4319 43.5357 19.1891 46.6429 22.383C49.75 25.577 51.6607 29.8143 51.6518 34.3261C51.6518 43.6426 44.0714 51.2203 34.9911 51.2203ZM44.0268 38.5725C43.5357 38.3163 41.0982 37.09 40.6429 36.9252C40.1875 36.7513 39.8571 36.669 39.5268 37.1815C39.1964 37.694 38.25 38.8288 37.9554 39.1766C37.6696 39.5152 37.375 39.5609 36.8839 39.3047C33.9732 37.8129 32.0625 36.6415 30.1429 33.2645C29.6339 32.3676 30.6518 32.4317 31.5982 30.4915C31.7589 30.1529 31.6786 29.86 31.5536 29.6038C31.4286 29.3475 30.4375 26.8491 30.0268 25.8333C29.625 24.8449 29.2143 24.9821 28.9107 24.9638C28.625 24.9455 28.2946 24.9455 27.9643 24.9455C27.6339 24.9455 27.0982 25.0737 26.6429 25.577C26.1875 26.0895 24.9107 27.3158 24.9107 29.8143C24.9107 32.3127 26.6875 34.7288 26.9286 35.0674C27.1786 35.406 30.4196 40.531 35.3929 42.7366C38.5357 44.1277 39.7679 44.2467 41.3393 44.0087C42.2946 43.8623 44.2679 42.7824 44.6786 41.5926C45.0893 40.4029 45.0893 39.3871 44.9643 39.1766C44.8482 38.9478 44.5179 38.8196 44.0268 38.5725Z" fill="white"/>
</svg>
