<svg width="27" height="27" viewBox="0 0 27 27" fill="none" xmlns="http://www.w3.org/2000/svg">
<path d="M22.956 3.81445C20.4308 1.35352 17.0679 0 13.494 0C6.11719 0 0.114509 5.83594 0.114509 13.0078C0.114509 15.2988 0.729241 17.5371 1.89844 19.5117L0 26.25L7.09353 24.4395C9.04621 25.4766 11.246 26.0215 13.4879 26.0215H13.494C20.8647 26.0215 27 20.1855 27 13.0137C27 9.53906 25.4813 6.27539 22.956 3.81445ZM13.494 23.8301C11.4931 23.8301 9.53438 23.3086 7.82879 22.3242L7.425 22.0898L3.2183 23.1621L4.33929 19.1719L4.07411 18.7617C2.95915 17.0391 2.37455 15.0527 2.37455 13.0078C2.37455 7.04883 7.36473 2.19727 13.5 2.19727C16.4712 2.19727 19.2616 3.32227 21.3589 5.36719C23.4562 7.41211 24.746 10.125 24.74 13.0137C24.74 18.9785 19.6232 23.8301 13.494 23.8301ZM19.5931 15.7324C19.2616 15.5684 17.6163 14.7832 17.3089 14.6777C17.0016 14.5664 16.7786 14.5137 16.5556 14.8418C16.3326 15.1699 15.6938 15.8965 15.4949 16.1191C15.302 16.3359 15.1031 16.3652 14.7717 16.2012C12.8069 15.2461 11.5172 14.4961 10.2214 12.334C9.8779 11.7598 10.565 11.8008 11.2038 10.5586C11.3123 10.3418 11.258 10.1543 11.1737 9.99023C11.0893 9.82617 10.4203 8.22656 10.1431 7.57617C9.87188 6.94336 9.59464 7.03125 9.38973 7.01953C9.19688 7.00781 8.97388 7.00781 8.75089 7.00781C8.5279 7.00781 8.16629 7.08984 7.85893 7.41211C7.55156 7.74023 6.68973 8.52539 6.68973 10.125C6.68973 11.7246 7.88906 13.2715 8.05179 13.4883C8.22054 13.7051 10.4083 16.9863 13.7652 18.3984C15.8866 19.2891 16.7183 19.3652 17.779 19.2129C18.4239 19.1191 19.7558 18.4277 20.033 17.666C20.3103 16.9043 20.3103 16.2539 20.2259 16.1191C20.1475 15.9727 19.9246 15.8906 19.5931 15.7324Z" fill="#ECA30C"/>
</svg>
