<svg width="20" height="14" viewBox="0 0 20 14" fill="none" xmlns="http://www.w3.org/2000/svg">
<path d="M4.28571 5.6C3.78214 5.6 3.3058 5.70062 2.85714 5.85812V5.6C2.85714 4.05562 4.13839 2.8 5.71429 2.8C6.50313 2.8 7.14286 2.17306 7.14286 1.4C7.14286 0.626938 6.50446 0 5.71429 0C2.56339 0 0 2.51125 0 5.6V9.8C0 12.1196 1.91875 14 4.28571 14C6.65268 14 8.57143 12.1196 8.57143 9.8C8.57143 7.48037 6.65179 5.6 4.28571 5.6ZM15.7143 5.6C15.2107 5.6 14.7344 5.70084 14.2857 5.85721V5.6C14.2857 4.05562 15.567 2.8 17.1429 2.8C17.9317 2.8 18.5714 2.17306 18.5714 1.4C18.5714 0.626938 17.9317 0 17.1429 0C13.992 0 11.4286 2.51212 11.4286 5.6V9.8C11.4286 12.1196 13.3473 14 15.7143 14C18.0813 14 20 12.1196 20 9.8C20 7.48037 18.0804 5.6 15.7143 5.6Z" fill="#ECA30C"/>
</svg>
