<svg width="76" height="71" viewBox="0 0 76 71" fill="none" xmlns="http://www.w3.org/2000/svg">
<ellipse cx="38" cy="35.5" rx="38" ry="35.5" fill="#009368"/>
<g clip-path="url(#clip0_388_2128)">
<path fill-rule="evenodd" clip-rule="evenodd" d="M29.4716 25.9643C31.2487 28.2759 33.5184 30.2042 36.1324 31.6228C36.6938 31.9499 37.3392 32.1231 37.9974 32.1231C38.6556 32.1231 39.301 31.9499 39.8625 31.6228C42.4764 30.2042 44.7462 28.2759 46.5233 25.9643C49.3112 22.2147 48.7549 17.4458 44.3548 16.0072C43.2199 15.6921 42.0128 15.7018 40.8837 16.0352C39.7546 16.3685 38.7534 17.0106 38.0048 17.8817C34.7164 14.1477 28.3748 15.6502 27.7916 20.4821C27.494 21.4449 28.1925 24.4269 29.4716 25.9643ZM23.5219 36.6683C22.9844 36.9675 22.4999 37.3457 22.0862 37.7887C21.9549 35.502 22.3787 33.2172 23.3246 31.1116C24.2705 29.006 25.7132 27.1362 27.5406 25.6472C27.7554 26.0257 28.0261 26.4476 28.3177 26.8593C26.8597 28.0978 25.6824 29.6065 24.8578 31.2931C24.0332 32.9796 23.5786 34.8087 23.5219 36.6683ZM25.8251 46.1138C25.0913 45.9852 24.4004 45.6919 23.8095 45.2582C20.2921 42.7753 22.2271 37.2078 26.6736 37.2532C27.4197 37.2531 28.155 37.4225 28.8186 37.7472C29.4821 38.0719 30.0548 38.5425 30.489 39.1202C30.9233 39.6978 31.2066 40.3657 31.3155 41.0684C31.4244 41.7711 31.3557 42.4885 31.1151 43.1609C30.8745 43.8333 30.469 44.4414 29.9322 44.9347C29.3954 45.428 28.7427 45.7922 28.0284 45.9973C27.3141 46.2024 26.5588 46.2423 25.8251 46.1138ZM49.3211 37.2531C43.1005 37.4687 43.125 45.9802 49.3212 46.1883C55.5186 46.0073 55.5402 37.4474 49.3211 37.2531ZM33.3048 43.2287C33.5139 49.1343 42.4814 49.1319 42.6891 43.2286C42.4703 37.3067 33.5231 37.3071 33.3048 43.2287ZM42.3273 47.4074C41.1687 48.4848 39.6135 49.0879 37.994 49.0879C36.3746 49.0878 34.8194 48.4847 33.6609 47.4073C31.5575 48.6187 28.7934 51.3421 30.3673 53.834C30.6468 54.2608 31.0364 54.6123 31.4988 54.8553C31.9613 55.0983 32.4814 55.2246 33.0096 55.2223H42.986C43.5141 55.2246 44.0342 55.0983 44.4967 54.8553C44.9591 54.6124 45.3486 54.2608 45.6281 53.834C47.2052 51.3379 44.4311 48.62 42.3273 47.4074ZM57.1363 49.4861C56.3857 47.9823 55.1725 46.7313 53.6578 45.8993C53.0885 46.4409 52.4121 46.8699 51.6678 47.1614C50.9234 47.4529 50.1258 47.6011 49.3209 47.5976C47.7011 47.5941 46.1471 46.987 44.9914 45.9063C44.3455 46.1944 44.6812 46.4266 45.0888 46.7087C45.2898 46.8477 45.5083 46.9989 45.6353 47.1748C47.0369 48.5333 48.3621 50.3459 48.3366 52.3188C48.3784 52.5044 48.3168 52.7638 48.2585 53.009C48.163 53.4112 48.0764 53.7754 48.4698 53.714H54.3165C54.8393 53.7094 55.3526 53.5803 55.8097 53.3386C56.2667 53.0968 56.6529 52.75 56.9332 52.3297C57.2135 51.9095 57.3789 51.4291 57.4143 50.9325C57.4498 50.4358 57.3542 49.9386 57.1363 49.4861ZM30.36 47.1748C30.6924 46.8571 31.0486 46.5627 31.4257 46.294C31.1354 45.7809 30.9502 45.9414 30.6678 46.1863L30.6678 46.1863C30.599 46.2459 30.5245 46.3105 30.4414 46.3716C29.256 47.2354 27.7831 47.6632 26.2932 47.5765C24.8032 47.4897 23.3961 46.8943 22.33 45.8993C20.2276 47.1184 17.4651 49.8443 19.0439 52.333C19.3241 52.757 19.7129 53.1062 20.1738 53.3478C20.6347 53.5895 21.1526 53.7155 21.6787 53.7142H27.5254C27.9189 53.778 27.8319 53.4104 27.7364 53.0067C27.6783 52.7612 27.617 52.5023 27.6588 52.319C27.6283 50.3411 28.9579 48.5333 30.36 47.1748ZM51.1346 31.2886C50.3087 29.6008 49.1298 28.0912 47.6699 26.8522C47.9565 26.4644 48.2208 26.0621 48.4618 25.6472C52.0815 28.492 54.3447 33.6172 53.9089 37.7393C53.4697 37.3368 52.9887 36.9779 52.4731 36.6682C52.4159 34.807 51.9605 32.9764 51.1346 31.2886Z" fill="white"/>
</g>
<defs>
<clipPath id="clip0_388_2128">
<rect width="42.2222" height="39.4444" fill="white" transform="translate(16.8887 15.7778)"/>
</clipPath>
</defs>
</svg>
