<svg width="320" height="320" viewBox="0 0 374 374" fill="none" xmlns="http://www.w3.org/2000/svg">
<path d="M187 372C289.173 372 372 289.173 372 187C372 84.8273 289.173 2 187 2C84.8274 2 2 84.8273 2 187C2 289.173 84.8274 372 187 372Z" stroke="#009368" stroke-width="3" stroke-miterlimit="10"/>
<path d="M187 358.65C281.799 358.65 358.65 281.8 358.65 187C358.65 92.2 281.799 15.3496 187 15.3496C92.1998 15.3496 15.3494 92.2 15.3494 187C15.3494 281.8 92.1998 358.65 187 358.65Z" stroke="#009368" stroke-width="3" stroke-miterlimit="10"/>
<path d="M187 345.282C274.417 345.282 345.282 274.417 345.282 187C345.282 99.5834 274.417 28.7183 187 28.7183C99.5834 28.7183 28.7183 99.5834 28.7183 187C28.7183 274.417 99.5834 345.282 187 345.282Z" stroke="#009368" stroke-width="3" stroke-miterlimit="10"/>
<path d="M187 331.913C267.033 331.913 331.913 267.033 331.913 187C331.913 106.967 267.033 42.0867 187 42.0867C106.967 42.0867 42.0869 106.967 42.0869 187C42.0869 267.033 106.967 331.913 187 331.913Z" stroke="#009368" stroke-width="3" stroke-miterlimit="10"/>
<path d="M187 318.544C259.65 318.544 318.545 259.65 318.545 187C318.545 114.35 259.65 55.4551 187 55.4551C114.35 55.4551 55.4556 114.35 55.4556 187C55.4556 259.65 114.35 318.544 187 318.544Z" stroke="#009368" stroke-width="3" stroke-miterlimit="10"/>
<path d="M187 305.176C252.267 305.176 305.176 252.267 305.176 187C305.176 121.733 252.267 68.8237 187 68.8237C121.733 68.8237 68.8235 121.733 68.8235 187C68.8235 252.267 121.733 305.176 187 305.176Z" stroke="#009368" stroke-width="3" stroke-miterlimit="10"/>
<path d="M291.643 192.357C294.612 134.549 250.156 85.2804 192.349 82.3115C134.541 79.3427 85.2722 123.798 82.3033 181.606C79.3345 239.413 123.79 288.682 181.597 291.651C239.405 294.62 288.674 250.164 291.643 192.357Z" stroke="#009368" stroke-width="3" stroke-miterlimit="10"/>
</svg>
