<svg width="110" height="150" viewBox="0 0 110 150" fill="none" xmlns="http://www.w3.org/2000/svg">
<path d="M107.715 40.7656C103.871 34.4751 94.9972 34.6697 88.9243 36.4627C80.9745 38.8088 73.6971 43.6445 67.4135 49.0233C60.2967 55.1192 53.722 61.8708 47.7395 69.1244C50.7408 57.5473 52.6781 45.6526 53.0495 33.8092C53.4911 19.3737 48.1109 0.717151 31.0668 0.0204778C16.502 -0.573744 5.1594 12.5094 2.2083 25.9306C-1.75661 43.9929 0.130487 63.6739 3.83441 81.603C8.25102 102.974 15.9299 123.455 23.7493 143.74C23.2374 144.048 22.7254 144.355 22.2135 144.662C21.29 145.205 16.5422 147.951 17.4456 149.549C18.3289 151.106 23.2876 148.187 23.9802 147.777C24.9036 147.234 25.8171 146.67 26.7305 146.107C29.6916 145.369 34.7205 142.572 35.7645 140.41C58.5602 125.432 79.6194 106.847 94.0737 83.3549C98.1089 76.798 101.602 69.862 104.393 62.6699C106.701 56.7174 111.469 46.9333 107.705 40.7759L107.715 40.7656ZM94.8767 63.1514C93.6521 66.8294 92.2368 70.4357 90.6508 73.9601C78.8966 100.116 58.1486 120.75 34.8711 136.62C23.1571 106.273 11.2925 74.5543 11.5434 41.5033C11.6036 34.2292 12.0754 26.7605 13.7216 19.6605C14.4343 16.5767 15.3979 13.4519 16.9236 10.6857C18.7405 7.38678 19.7041 6.90525 23.4381 7.60193C39.0267 10.5116 42.3593 28.5021 41.5562 41.9848C40.4521 60.4159 36.0857 78.7139 29.6515 95.9258C28.9488 97.8007 33.767 95.9258 33.9577 95.8336C36.1359 94.891 39.4282 93.2518 40.6528 91.0388C49.6768 74.708 61.3908 59.0533 75.8552 47.3328C79.5792 44.3207 83.6043 42.0463 88.5329 42.7942C92.4877 43.3884 96.6032 45.837 97.4665 50.0888C98.3197 54.2483 96.1616 59.289 94.8667 63.1617L94.8767 63.1514Z" fill="#ECA30C"/>
</svg>
