<svg width="16" height="16" viewBox="0 0 16 16" fill="none" xmlns="http://www.w3.org/2000/svg">
<path d="M0 5.9655V5.78425C0 3.59988 1.57875 1.73675 3.73125 1.378C5.12813 1.14082 6.60625 1.60519 7.625 2.6255L8 2.99988L8.34688 2.6255C9.39375 1.60519 10.8438 1.14082 12.2688 1.378C14.4219 1.73675 16 3.59988 16 5.78425V5.9655C16 7.26238 15.4625 8.503 14.5125 9.38738L8.86563 14.6593C8.63125 14.878 8.32187 14.9999 8 14.9999C7.67812 14.9999 7.36875 14.878 7.13438 14.6593L1.48719 9.38738C0.538437 8.503 9.375e-06 7.26238 9.375e-06 5.9655H0Z" fill="white"/>
</svg>
