<svg width="50" height="50" viewBox="0 0 50 50" fill="none" xmlns="http://www.w3.org/2000/svg">
<path d="M44.6044 30.6888L39.0637 37.9345C37.955 39.3842 36.2342 40.2345 34.4092 40.2345H24.1211C23.3121 40.2345 22.6562 39.5787 22.6562 38.7697C22.6562 37.9607 23.3121 37.3049 24.1211 37.3049H33.038C34.9545 37.3049 36.5595 35.7364 36.5229 33.8202C36.4873 31.9633 34.9709 30.4689 33.1055 30.4689H22.8516C19.9075 27.6382 15.3644 27.3069 12.0408 29.6808L10.9375 30.4689V47.0705H20.7031H22.6562H36.4125C39.4031 47.0705 42.1885 45.5498 43.8057 43.0342L49.5224 34.1415C49.8342 33.6564 49.9999 33.0921 49.9999 32.5154C50 29.6398 46.3511 28.4046 44.6044 30.6888Z" fill="#ECA30C"/>
<path d="M6.54297 27.5391H1.46484C0.655859 27.5391 0 28.1949 0 29.0039V48.5352C0 49.3441 0.655859 50 1.46484 50H6.54297C7.35195 50 8.00781 49.3441 8.00781 48.5352V29.0039C8.00781 28.1949 7.35195 27.5391 6.54297 27.5391Z" fill="#ECA30C"/>
<path d="M27.9591 8.09619C27.6611 8.32471 27.4968 8.6707 27.4404 8.9708C27.3624 9.38477 27.4611 9.76934 27.6921 9.95039C27.7734 10.0142 27.8631 10.0769 27.9591 10.1385V8.09619Z" fill="#ECA30C"/>
<path d="M29.0039 24.4141C35.7349 24.4141 41.2109 18.938 41.2109 12.207C41.2109 5.47607 35.7349 0 29.0039 0C22.2729 0 16.7969 5.47607 16.7969 12.207C16.7969 18.938 22.2729 24.4141 29.0039 24.4141ZM25.3087 16.1981C25.6038 15.747 26.2092 15.62 26.6605 15.9155C27.188 16.2605 27.5186 16.4102 27.96 16.4722V12.348C27.3362 12.0622 26.87 11.7871 26.4875 11.487C25.6771 10.8514 25.307 9.74863 25.5218 8.60889C25.7558 7.36689 26.6203 6.37871 27.7778 6.03008C27.8392 6.01162 27.8998 5.99473 27.96 5.97881V5.37109C27.96 4.83184 28.3973 4.39453 28.9365 4.39453C29.4758 4.39453 29.9131 4.83184 29.9131 5.37109V5.87178C30.8612 6.03594 31.5313 6.50273 31.856 6.87529C32.2103 7.28193 32.1677 7.89883 31.761 8.25303C31.3565 8.60537 30.7441 8.56533 30.3889 8.16465C30.3666 8.14209 30.2114 7.99268 29.9131 7.88262V11.0381C30.0864 11.1024 30.2597 11.1648 30.4297 11.225C32.1463 11.8318 33.1011 13.4209 32.8056 15.1792C32.5758 16.5459 31.5357 17.9319 29.9131 18.3436V19.043C29.9131 19.5822 29.4758 20.0195 28.9365 20.0195C28.3973 20.0195 27.96 19.5822 27.96 19.043V18.4373C27.1715 18.3691 26.5179 18.1562 25.5913 17.55C25.1399 17.2547 25.0135 16.6495 25.3087 16.1981Z" fill="#ECA30C"/>
<path d="M30.8785 14.8556C30.9427 14.4738 30.9689 13.5642 29.9121 13.1191V16.256C30.4614 15.9413 30.7896 15.3849 30.8785 14.8556Z" fill="#ECA30C"/>
</svg>
