<svg width="473" height="529" viewBox="0 0 473 529" fill="none" xmlns="http://www.w3.org/2000/svg">
<path d="M107.181 0.422424C99.6314 6.98242 92.6614 14.3824 86.4114 22.7924C51.3214 70.0124 53.3114 129.842 55.2214 187.672C57.1314 245.952 59.1214 306.212 23.5414 354.102C16.6414 363.392 8.88142 371.472 0.451416 378.542V373.282C7.66142 366.922 14.3214 359.782 20.3214 351.712C55.4014 304.492 53.4214 244.652 51.5114 186.822C49.6014 128.542 47.6114 68.2824 83.1914 20.3924L83.2114 20.4124C88.7114 13.0124 94.7514 6.39242 101.241 0.422424L107.181 0.422424Z" fill="#ffffff"/>
<path d="M150.541 0.422424C134.341 10.3424 119.801 22.7024 107.881 38.7424C72.7914 85.9624 74.7714 145.792 76.6914 203.632C78.6014 261.902 80.5914 322.162 45.0114 370.052C32.5814 386.782 17.3814 399.562 0.451416 409.732V405.172C16.1214 395.382 30.2014 383.262 41.7914 367.662C76.8714 320.442 74.8914 260.602 72.9814 202.772C71.0714 144.502 69.0714 84.2424 104.661 36.3524H104.681C115.631 21.6224 128.731 9.95242 143.261 0.422424L150.541 0.422424Z" fill="#ffffff"/>
<path d="M203.891 0.422424C174.891 12.3424 148.671 28.6924 129.351 54.6924C94.2614 101.912 96.2214 161.732 98.1314 219.562C100.041 277.842 102.041 338.102 66.4614 385.992C48.9714 409.532 25.9914 425.252 0.451416 436.912V432.702C24.7514 421.292 46.5614 406.042 63.2314 383.592C98.3214 336.372 96.3614 276.562 94.4514 218.732C92.5414 160.452 90.5414 100.192 126.131 52.3024H126.151C144.131 28.1124 167.911 12.1824 194.311 0.422424H203.891Z" fill="#ffffff"/>
<path d="M273.121 0.422424C226.031 13.7124 180.371 30.9124 150.841 70.6624C115.751 117.882 117.731 177.712 119.641 235.552C121.561 293.822 123.551 354.082 87.9714 401.972C65.6814 431.972 34.4914 449.252 0.451416 461.662V457.662C33.3014 445.442 63.2814 428.472 84.7514 399.582C119.831 352.362 117.851 292.522 115.941 234.692C114.031 176.422 112.031 116.162 147.621 68.2724H147.641C175.251 31.1124 216.541 13.4724 259.981 0.422424H273.121Z" fill="#ffffff"/>
<path d="M353.061 0.422424C342.471 3.49242 331.771 6.33242 321.151 9.15242C265.231 24.0124 207.391 39.3924 172.311 86.6124C137.221 133.832 139.181 193.652 141.091 251.482C143.001 309.762 145.001 370.022 109.421 417.912C82.5214 454.112 42.6514 471.792 0.451416 484.752V480.882C41.5114 468.112 80.1314 450.602 106.191 415.512C141.281 368.292 139.321 308.482 137.411 250.652C135.501 192.372 133.501 132.112 169.091 84.2224H169.111C204.691 36.3524 262.961 20.8624 319.311 5.88242C326.061 4.09242 332.831 2.29242 339.591 0.422424L353.061 0.422424Z" fill="#ffffff"/>
<path d="M420.571 0.422424C395.851 10.9524 369.021 18.0824 342.621 25.1024C286.681 39.9424 228.841 55.3324 193.761 102.552C158.671 149.772 160.651 209.602 162.561 267.432C164.471 325.712 166.471 385.972 130.881 433.862C99.4514 476.162 50.3314 493.172 0.451416 506.902V503.102C49.2514 489.582 97.0914 472.612 127.661 431.472C162.751 384.252 160.791 324.432 158.881 266.602C156.971 208.322 154.971 148.062 190.551 100.172L190.581 100.192C226.161 52.3024 284.431 36.8224 340.781 21.8324C364.351 15.5724 388.271 9.21242 410.671 0.422424L420.571 0.422424Z" fill="#ffffff"/>
<path d="M472.921 0.422424C440.771 20.6624 401.991 30.9724 364.091 41.0524C308.151 55.8924 250.311 71.2824 215.221 118.502C180.141 165.722 182.121 225.552 184.031 283.392C185.941 341.662 187.941 401.922 152.351 449.812C116.771 497.702 58.5014 513.182 2.15142 528.172C1.58142 528.322 1.02142 528.472 0.451416 528.622V524.832C56.3314 510.002 114.081 494.592 149.131 447.422C184.221 400.202 182.261 340.382 180.351 282.552C178.431 224.272 176.441 164.012 212.021 116.122L212.041 116.142C247.631 68.2524 305.901 52.7724 362.251 37.7824C398.031 28.2724 434.581 18.5624 465.471 0.422424L472.921 0.422424Z" fill="#ffffff"/>
</svg>
