<svg width="826" height="832px" viewBox="0 0 826 1338" fill="none" xmlns="http://www.w3.org/2000/svg">
<path d="M339.744 809.782C347.496 739.196 307.919 681.901 269.661 626.482C231.682 571.496 192.384 514.609 200.028 445.008C207.673 375.407 259.112 321.446 308.86 269.288C335.515 241.339 363.087 212.431 383.716 181.371L379.325 179.936C358.857 210.719 331.427 239.514 304.85 267.348C254.732 319.917 202.893 374.265 195.14 444.85C187.388 515.436 226.965 572.731 265.223 628.15C303.202 683.136 342.5 740.023 334.856 809.624C327.211 879.225 275.772 933.186 225.992 985.342C175.874 1037.91 124.035 1092.26 116.282 1162.84L121.138 1163C128.785 1093.38 180.222 1039.44 230.002 987.283C280.119 934.714 331.959 880.366 339.712 809.781L339.744 809.782Z" fill="#ffffff"/>
<path d="M307.179 808.733C314.932 738.147 275.354 680.852 237.097 625.433C199.117 570.447 159.819 513.56 167.464 443.959C175.108 374.358 226.548 320.397 276.295 268.24C302.95 240.29 330.522 211.382 351.151 180.322L346.761 178.887C326.292 209.67 298.862 238.465 272.285 266.299C222.168 318.868 170.328 373.216 162.576 443.801C154.823 514.387 194.401 571.682 232.658 627.101C270.638 682.087 309.936 738.974 302.291 808.575C294.647 878.176 243.207 932.137 193.427 984.293C143.31 1036.86 91.4702 1091.21 83.7177 1161.8L88.5735 1161.95C96.2204 1092.33 147.658 1038.39 197.437 986.234C247.555 933.665 299.395 879.317 307.147 808.732L307.179 808.733Z" fill="#ffffff"/>
<path d="M274.614 807.681C282.366 737.096 242.789 679.8 204.531 624.382C166.552 569.396 127.286 512.51 134.931 442.909C142.575 373.308 194.015 319.347 243.762 267.189C270.417 239.24 297.989 210.332 318.618 179.271L314.228 177.836C293.759 208.62 266.329 237.415 239.752 265.249C189.635 317.818 137.795 372.166 130.042 442.751C122.29 513.337 161.868 570.632 200.125 626.051C238.105 681.037 277.37 737.923 269.726 807.524C262.081 877.125 210.642 931.086 160.894 983.243C110.744 1035.81 58.937 1090.16 51.1845 1160.75L56.0403 1160.9C63.6872 1091.28 115.124 1037.34 164.872 985.182C214.989 932.614 266.829 878.266 274.582 807.68L274.614 807.681Z" fill="#ffffff"/>
<path d="M209.45 805.582C217.202 734.996 177.624 677.701 139.367 622.282C101.388 567.296 62.1221 510.41 69.7665 440.809C77.4109 371.208 128.851 317.247 178.598 265.09C205.253 237.14 232.825 208.232 253.454 177.172L249.064 175.737C228.595 206.52 201.165 235.315 174.588 263.15C124.471 315.718 72.6308 370.066 64.8783 440.652C57.1259 511.237 96.7037 568.533 134.961 623.951C172.941 678.937 212.206 735.823 204.562 805.424C196.917 875.025 145.478 928.986 95.7301 981.144C45.5803 1033.71 -6.22709 1088.06 -13.9796 1158.65L-9.12381 1158.8C-1.47688 1089.18 49.9604 1035.24 99.7079 983.083C149.825 930.514 201.665 876.166 209.417 805.581L209.45 805.582Z" fill="#ffffff"/>
<path d="M242.017 806.631C249.77 736.046 210.192 678.75 171.935 623.332C133.955 568.345 94.6573 511.459 102.302 441.857C109.946 372.256 161.386 318.295 211.133 266.138C237.788 238.188 265.36 209.28 285.989 178.22L281.599 176.785C261.13 207.568 233.7 236.363 207.123 264.198C157.006 316.767 105.166 371.114 97.4135 441.7C89.661 512.285 129.239 569.581 167.496 624.999C205.476 679.986 244.774 736.872 237.129 806.474C229.485 876.075 178.045 930.036 128.265 982.192C78.1478 1034.76 26.3081 1089.11 18.5556 1159.69L23.4113 1159.85C31.0583 1090.23 82.4956 1036.29 132.275 984.132C182.393 931.563 234.232 877.216 241.985 806.63L242.017 806.631Z" fill="#ffffff"/>
<path d="M176.881 804.531C184.634 733.945 145.056 676.65 106.799 621.231C68.8193 566.245 29.5538 509.359 37.1981 439.758C44.8425 370.157 96.2823 316.196 146.03 264.038C172.685 236.089 200.257 207.181 220.886 176.121L216.495 174.686C196.027 205.469 168.597 234.264 142.02 262.098C91.9022 314.667 40.0625 369.015 32.31 439.6C24.5575 510.186 64.1354 567.481 102.392 622.9C140.372 677.886 179.67 734.773 172.026 804.374C164.381 873.975 112.942 927.936 63.1617 980.092C13.0443 1032.66 -38.7955 1087.01 -46.5479 1157.59L-41.6922 1157.75C-34.0452 1088.13 17.392 1034.19 67.1395 982.032C117.257 929.463 169.097 875.115 176.849 804.529L176.881 804.531Z" fill="#ffffff"/>
<path d="M144.317 803.482C152.069 732.896 112.492 675.601 74.2345 620.182C36.2548 565.196 -3.01073 508.31 4.63363 438.709C12.278 369.108 63.7179 315.147 113.465 262.99C140.12 235.04 167.692 206.132 188.321 175.072L183.931 173.637C163.462 204.42 136.032 233.215 109.455 261.049C59.3377 313.618 7.498 367.966 -0.254468 438.551C-8.00693 509.137 31.5709 566.432 69.828 621.851C107.808 676.837 147.106 733.724 139.461 803.325C131.817 872.926 80.3771 926.887 30.5973 979.043C-19.5202 1031.61 -71.3599 1085.96 -79.1124 1156.55L-74.2566 1156.7C-66.6097 1087.08 -15.1724 1033.14 34.575 980.983C84.6925 928.414 136.532 874.066 144.285 803.481L144.317 803.482Z" fill="#ffffff"/>
</svg>
