<svg width="229" height="321" viewBox="0 0 229 321" fill="none" xmlns="http://www.w3.org/2000/svg">
<path d="M228.472 0.934753V4.79475C214.232 9.21475 199.702 13.0848 185.302 16.9148C129.352 31.7548 71.522 47.1448 36.432 94.3648C1.34199 141.585 3.32199 201.415 5.24199 259.255C5.91199 279.795 6.60199 300.585 5.63199 320.995H1.89199C2.92199 300.325 2.22199 279.225 1.53199 258.395C-0.378013 200.125 -2.36802 139.855 33.212 91.9748H33.232C68.812 44.0948 127.082 28.6148 183.432 13.6248C198.472 9.63475 213.642 5.61475 228.472 0.934753Z" fill="#ffffff"/>
<path d="M228.472 23.2247V27.0147C221.242 29.0147 213.992 30.9447 206.772 32.8647C150.822 47.7147 92.9919 63.0947 57.9019 110.315C22.8119 157.535 24.7919 217.375 26.7119 275.205C27.2119 290.415 27.7119 305.765 27.5419 320.995H23.8419C24.0319 305.495 23.5119 289.845 23.0019 274.345C21.0919 216.075 19.0919 155.815 54.6819 107.925H54.7019C90.2819 60.0547 148.552 44.5647 204.902 29.5847C212.742 27.5047 220.622 25.4147 228.472 23.2247Z" fill="#ffffff"/>
<path d="M228.472 44.9747V48.7347C228.382 48.7547 228.302 48.7847 228.212 48.8047C172.292 63.6647 114.452 79.0447 79.372 126.265C44.282 173.495 46.242 233.305 48.152 291.135C48.472 301.055 48.802 311.035 48.942 320.995H45.282C45.142 310.755 44.812 300.505 44.472 290.305C42.562 232.025 40.562 171.765 76.152 123.875L76.172 123.895C111.752 76.0047 170.022 60.5247 226.372 45.5347C227.072 45.3447 227.772 45.1647 228.472 44.9747Z" fill="#ffffff"/>
<path d="M228.472 66.7147V70.5147C179.522 84.0347 131.502 100.985 100.862 142.235C65.772 189.455 67.752 249.295 69.662 307.125C69.812 311.735 69.972 316.365 70.102 320.995H66.422C66.292 316.075 66.122 311.165 65.962 306.265C64.052 247.995 62.052 187.735 97.642 139.845H97.662C129.172 97.4547 178.472 80.4547 228.472 66.7147Z" fill="#ffffff"/>
<path d="M228.472 88.8647V92.7047C187.262 105.485 148.472 122.995 122.332 158.185C87.662 204.845 89.162 263.805 91.042 320.995H87.392C85.492 263.095 83.772 203.345 119.102 155.795L119.132 155.815C146.112 119.505 186.132 101.825 228.472 88.8647Z" fill="#ffffff"/>
<path d="M228.472 111.945V115.895C195.462 128.125 165.322 145.115 143.772 174.125C112.322 216.455 110.662 268.915 112.032 320.995H108.372C106.952 268.205 108.482 214.945 140.572 171.745L140.592 171.765C162.962 141.665 194.292 124.365 228.472 111.945Z" fill="#ffffff"/>
<path d="M228.472 136.605V140.775C203.992 152.205 182.012 167.505 165.242 190.075C137.002 228.085 132.782 274.265 133.202 320.995H129.532C129.042 273.525 133.182 226.545 162.042 187.695L162.062 187.715C179.652 164.055 202.772 148.295 228.472 136.605Z" fill="#ffffff"/>
</svg>
