<svg width="601" height="770" viewBox="0 0 601 770" fill="none" xmlns="http://www.w3.org/2000/svg">
<path d="M538.71 417.83C524.832 473.911 550.055 525.37 574.433 575.14C598.637 624.525 623.656 675.612 609.972 730.911C596.287 786.209 549.474 823.19 504.204 858.931C479.948 878.084 454.858 897.894 435.055 920.342L438.391 922.071C458.035 899.826 483 880.089 507.182 861.019C552.791 824.993 599.965 787.752 613.843 731.671C627.721 675.591 602.498 624.131 578.12 574.361C553.916 524.976 528.871 473.884 542.556 418.585C556.24 363.287 603.053 326.306 648.349 290.57C693.958 254.544 741.131 217.302 755.009 161.222L751.164 160.467C737.475 215.784 690.666 252.746 645.396 288.487C599.787 324.513 552.614 361.755 538.736 417.835L538.71 417.83Z" fill="#ffffff"/>
<path d="M383.942 387.438C370.064 443.518 395.287 494.978 419.665 544.748C443.869 594.133 468.914 645.225 455.229 700.524C441.545 755.822 394.732 792.803 349.462 828.544C325.206 847.697 300.115 867.506 280.313 889.955L283.648 891.684C303.293 869.439 328.258 849.702 352.44 830.632C398.049 794.606 445.223 757.364 459.1 701.284C472.978 645.203 447.755 593.744 423.378 543.974C399.174 494.589 374.129 443.497 387.814 388.198C401.498 332.9 448.311 295.919 493.607 260.183C539.216 224.157 586.389 186.915 600.267 130.835L596.422 130.079C582.733 185.397 535.924 222.358 490.629 258.095C445.02 294.121 397.846 331.363 383.968 387.443L383.942 387.438Z" fill="#ffffff"/>
<path d="M435.521 397.567C421.643 453.648 446.866 505.107 471.243 554.877C495.447 604.262 520.467 655.35 506.782 710.648C493.098 765.947 446.285 802.927 401.015 838.668C376.759 857.822 351.668 877.631 331.865 900.08L335.201 901.809C354.846 879.563 379.811 859.827 403.993 840.757C449.602 804.731 496.775 767.489 510.653 711.408C524.531 655.328 499.308 603.869 474.931 554.098C450.727 504.713 425.707 453.626 439.392 398.328C453.076 343.029 499.889 306.049 545.159 270.307C590.794 234.286 637.942 197.04 651.82 140.959L647.974 140.204C634.285 195.521 587.477 232.483 542.207 268.224C496.598 304.25 449.424 341.492 435.546 397.573L435.521 397.567Z" fill="#ffffff"/>
<path d="M487.126 407.702C473.248 463.782 498.471 515.241 522.849 565.012C547.053 614.397 572.072 665.484 558.388 720.782C544.703 776.081 497.89 813.061 452.62 848.803C428.364 867.956 403.274 887.765 383.471 910.214L386.807 911.943C406.451 889.697 431.416 869.961 455.598 850.891C501.207 814.865 548.381 777.623 562.259 721.543C576.137 665.462 550.914 614.003 526.536 564.233C502.332 514.848 477.313 463.76 490.997 408.462C504.682 353.164 551.495 316.183 596.765 280.442C642.4 244.421 689.547 207.174 703.425 151.093L699.58 150.338C685.891 205.655 639.082 242.617 593.812 278.359C548.203 314.385 501.03 351.626 487.152 407.707L487.126 407.702Z" fill="#ffffff"/>
<path d="M512.915 412.767C499.037 468.847 524.26 520.307 548.638 570.077C572.842 619.462 597.861 670.549 584.177 725.848C570.492 781.146 523.679 818.127 478.409 853.868C454.153 873.021 429.063 892.83 409.26 915.279L412.596 917.008C432.241 894.763 457.205 875.026 481.387 855.956C526.996 819.93 574.17 782.688 588.048 726.608C601.926 670.527 576.703 619.068 552.325 569.298C528.121 519.913 503.076 468.821 516.761 413.522C530.445 358.224 577.258 321.243 622.554 285.507C668.163 249.481 715.336 212.239 729.214 156.159L725.369 155.403C711.68 210.721 664.871 247.682 619.602 283.424C573.992 319.45 526.819 356.692 512.941 412.772L512.915 412.767Z" fill="#ffffff"/>
<path d="M461.337 402.637C447.459 458.718 472.682 510.177 497.059 559.947C521.263 609.332 546.308 660.424 532.624 715.723C518.939 771.021 472.126 808.002 426.857 843.743C402.6 862.896 377.51 882.706 357.707 905.154L361.043 906.883C380.688 884.638 405.653 864.902 429.834 845.831C475.444 809.805 522.617 772.564 536.495 716.483C550.373 660.403 525.15 608.943 500.773 559.173C476.569 509.788 451.524 458.696 465.208 403.397C478.893 348.099 525.706 311.118 571.001 275.382C616.61 239.356 663.784 202.114 677.662 146.034L673.816 145.279C660.127 200.596 613.319 237.558 568.023 273.294C522.414 309.32 475.241 346.562 461.363 402.642L461.337 402.637Z" fill="#ffffff"/>
<path d="M409.732 392.502C395.854 448.583 421.077 500.042 445.454 549.812C469.658 599.197 494.703 650.29 481.019 705.588C467.334 760.887 420.521 797.867 375.251 833.608C350.995 852.762 325.905 872.571 306.102 895.02L309.437 896.749C329.082 874.503 354.047 854.767 378.229 835.697C423.838 799.67 471.012 762.429 484.89 706.348C498.768 650.268 473.545 598.809 449.167 549.038C424.963 499.653 399.918 448.561 413.603 393.263C427.287 337.964 474.1 300.984 519.396 265.247C565.005 229.221 612.178 191.98 626.056 135.899L622.211 135.144C608.522 190.461 561.713 227.423 516.418 263.159C470.809 299.185 423.635 336.427 409.757 392.507L409.732 392.502Z" fill="#ffffff"/>
</svg>
