<svg width="90" height="90" viewBox="0 0 90 90" fill="none" xmlns="http://www.w3.org/2000/svg">
<circle cx="45" cy="45" r="45" fill="#009368"/>
<g clip-path="url(#clip0_89_137)">
<path d="M25.1999 33.335C24.5974 33.335 24.0056 33.2696 23.4314 33.1426C22.5495 34.9717 21.9362 36.9278 21.6247 38.9297C21.2468 41.3447 23.1237 43.5332 25.5759 43.5332C27.5583 43.5332 29.2175 42.1201 29.5222 40.1719C29.9431 37.4854 31.1843 35.0449 33.114 33.1143C35.0437 31.1846 37.4851 29.9434 40.1716 29.5225C42.1198 29.2178 43.5329 27.5586 43.5329 25.5762C43.5329 23.127 41.3464 21.2471 38.9284 21.625C36.9265 21.9365 34.9694 22.5508 33.1403 23.4317C33.7204 26.0557 32.9929 28.9151 30.9558 30.9531C29.4196 32.4893 27.3757 33.335 25.1999 33.335Z" fill="white"/>
<path d="M28.8849 28.8813C30.9126 26.852 30.9126 23.55 28.8849 21.5215C26.8556 19.493 23.5536 19.493 21.5251 21.5207C19.5026 23.5413 19.481 26.838 21.5243 28.8813C23.5797 30.935 26.8734 30.8928 28.8849 28.8813Z" fill="white"/>
<path d="M49.8281 29.5225C52.5146 29.9434 54.9561 31.1846 56.8857 33.1143C58.8154 35.0449 60.0566 37.4854 60.4775 40.1719C60.7822 42.1201 62.4414 43.5332 64.4238 43.5332C66.876 43.5332 68.7529 41.3447 68.375 38.9297C68.0635 36.9278 67.4502 34.9717 66.5684 33.1426C65.9941 33.2696 65.4023 33.335 64.7998 33.335C62.624 33.335 60.5801 32.4893 59.0439 30.9531C57.0068 28.9151 56.2793 26.0557 56.8594 23.4317C55.0303 22.5508 53.0732 21.9365 51.0713 21.625C48.6533 21.2471 46.4668 23.127 46.4668 25.5762C46.4668 27.5586 47.8799 29.2178 49.8281 29.5225Z" fill="white"/>
<path d="M68.4761 28.8813C70.5194 26.8379 70.4978 23.5413 68.4753 21.5207C66.4468 19.493 63.1448 19.493 61.1155 21.5215C59.0878 23.55 59.0878 26.852 61.1155 28.8813C63.1271 30.8928 66.4207 30.935 68.4761 28.8813Z" fill="white"/>
<path d="M40.1716 60.4775C37.4851 60.0566 35.0437 58.8154 33.114 56.8857C31.1843 54.9551 29.9431 52.5146 29.5222 49.8281C29.2175 47.8799 27.5583 46.4668 25.5759 46.4668C23.1237 46.4668 21.2468 48.6553 21.6247 51.0703C21.9362 53.0723 22.5495 55.0283 23.4314 56.8574C24.0056 56.7305 24.5974 56.665 25.1999 56.665C27.3757 56.665 29.4196 57.5107 30.9558 59.0469C32.9929 61.085 33.7204 63.9443 33.1403 66.5684C34.9694 67.4492 36.9265 68.0635 38.9284 68.375C41.3464 68.7529 43.5329 66.873 43.5329 64.4238C43.5329 62.4414 42.1198 60.7822 40.1716 60.4775Z" fill="white"/>
<path d="M21.5243 61.1187C19.481 63.1621 19.5026 66.4587 21.5251 68.4793C23.5536 70.507 26.8556 70.507 28.8849 68.4785C30.9126 66.45 30.9126 63.148 28.8849 61.1187C26.8734 59.1072 23.5797 59.065 21.5243 61.1187Z" fill="white"/>
<path d="M64.7998 56.665C65.4023 56.665 65.9941 56.7305 66.5684 56.8574C67.4502 55.0283 68.0635 53.0723 68.375 51.0703C68.7529 48.6553 66.876 46.4668 64.4238 46.4668C62.4414 46.4668 60.7822 47.8799 60.4775 49.8281C60.0566 52.5146 58.8154 54.9551 56.8857 56.8857C54.9561 58.8154 52.5146 60.0566 49.8281 60.4775C47.8799 60.7822 46.4668 62.4414 46.4668 64.4238C46.4668 66.873 48.6533 68.7529 51.0713 68.375C53.0732 68.0635 55.0303 67.4492 56.8594 66.5684C56.2793 63.9443 57.0068 61.085 59.0439 59.0469C60.5801 57.5107 62.624 56.665 64.7998 56.665Z" fill="white"/>
<path d="M61.1155 61.1187C59.0878 63.148 59.0878 66.45 61.1155 68.4785C63.1448 70.507 66.4468 70.507 68.4753 68.4793C70.4978 66.4587 70.5194 63.162 68.4761 61.1187C66.4207 59.065 63.1271 59.1072 61.1155 61.1187Z" fill="white"/>
<path d="M53.6516 38.5078C51.2688 36.125 47.4006 36.1104 45.0002 38.4658C42.5979 36.1081 38.7408 36.1159 36.3489 38.5078C33.9514 40.9043 33.9514 44.8047 36.3489 47.2012L43.9641 54.8174C44.5351 55.3884 45.4641 55.3897 46.0364 54.8174L53.6516 47.2012C56.0491 44.8047 56.0491 40.9043 53.6516 38.5078Z" fill="white"/>
</g>
<defs>
<clipPath id="clip0_89_137">
<rect width="50" height="50" fill="white" transform="translate(20 20)"/>
</clipPath>
</defs>
</svg>
